<svg width="649" height="198" viewBox="0 0 649 198" fill="none" xmlns="http://www.w3.org/2000/svg">
<rect width="649" height="198" fill="#14213D"/>
<path d="M116 56C110.249 46.0673 94.8701 43.3581 84.5 45.3334C63.7204 49.2914 60.7165 83.5117 60.9444 99.3889C61.0884 109.415 61.1703 123.838 69.7222 131C76.6766 136.824 88.2244 139.446 97 140.444C112.937 142.258 125.534 129.543 127.889 114.333C130.111 99.9846 128.43 84.5654 127 70.2222C126.637 66.5825 126.698 59.0921 124.778 55.4445C122.777 51.6425 124.447 64.0597 124.889 68.3334C126.868 87.4833 129.571 107.539 137.667 125.222C143.125 137.145 152.035 147.879 164.778 152.222C172.942 155.005 173.355 151.645 178 147" stroke="#FCA311" stroke-width="10" stroke-linecap="round"/>
<path d="M178 35C178 -1.16794 179.451 107.788 187.222 143.111C188.766 150.128 189.454 128.915 190.667 121.833C194.197 101.21 197.322 67.3604 223.111 63.8889C244.024 61.0737 249.044 86.1807 252.333 101.556C255.603 116.839 264.806 146.16 248.889 158C240.905 163.939 228.459 163.6 219.222 163.444C203.764 163.184 188.66 161.139 177.833 149.056C170.82 141.228 167 131.414 167 121" stroke="#FCA311" stroke-width="10" stroke-linecap="round"/>
<path d="M304 76C296.27 54.5267 273.241 74.9636 264.778 83.8333C250.312 98.9933 245.61 118.314 248.778 139C251.249 155.136 261.205 168.452 277.722 171.667C314.246 178.775 335.945 137.25 330 106.222C327.168 91.4381 316.379 70.2421 298.889 69.3889C291.067 69.0073 283.835 75.538 278 80" stroke="#FCA311" stroke-width="10" stroke-linecap="round"/>
<path d="M337 63C339.171 63 338.926 64.5054 338.667 66.6111C336.048 87.8846 331.664 108.591 332.389 130.222C332.758 141.227 335.828 156.65 348.889 158.944C361.513 161.162 368.103 142.716 371.667 134C379.789 114.135 385.845 93.0189 391.111 72.2222C391.953 68.8957 392.494 65.6578 392.944 62.2777C393.457 58.436 392.574 70.0206 392.333 73.8889C390.905 96.8682 384.54 126.612 398.444 147C405.602 157.495 414.6 166.635 426 172" stroke="#FCA311" stroke-width="10" stroke-linecap="round"/>
<path d="M448 45C448 44.5946 448.342 42.9854 447.667 44.1667C443.957 50.6586 440.29 57.2314 437 63.9445C426.782 84.7943 419.288 110.709 423.333 134.111C425.265 145.285 434.669 158.815 447.5 157.389C464.373 155.514 477.732 142.268 489 131" stroke="#FCA311" stroke-width="10" stroke-linecap="round"/>
<path d="M416 77C451.936 79.9946 488.02 82.0017 524 85" stroke="#FCA311" stroke-width="10" stroke-linecap="round"/>
</svg>
