<svg width="649" height="198" viewBox="0 0 649 198" fill="none" xmlns="http://www.w3.org/2000/svg">
<rect width="649" height="198" fill="#14213D"/>
<path d="M111 80C111 73.3198 111.658 66.1574 108 60.2222C102.751 51.7051 94.8099 48.1883 85.1667 51.4444C74.2475 55.1314 67.8979 65.5746 62.8333 75.2778C56.2529 87.8851 47.8575 106.231 52 120.889C56.845 138.033 76.0224 147.615 92.4444 149.556C101.524 150.628 109.155 149.47 118 147.667C121.521 146.949 125.033 146.13 128.444 145C151.87 137.242 122.926 146.233 139 139" stroke="#FCA311" stroke-width="10" stroke-linecap="round"/>
<path d="M173 77C163.991 77.2743 152.879 76.2868 144.667 81C136.138 85.8945 134.8 97.2848 135.5 106.111C137.325 129.104 158.401 155.72 184.111 150.056C191.669 148.39 196.513 140.906 199.444 134.333C206.597 118.296 209.249 97.1734 196.778 82.7777C186.041 70.3837 166.375 66.2881 150.778 68.1111C140.584 69.3026 141.144 72.6638 138 80" stroke="#FCA311" stroke-width="10" stroke-linecap="round"/>
<path d="M224 73C220.738 81.2881 217.605 89.5866 215 98.1111C213.472 103.113 211.614 109.846 210.222 114.889C208.946 119.514 206.444 133.576 206.444 128.778C206.444 120.62 211.869 108.719 214.667 101.444C221.505 83.6645 231.507 64.4985 247.889 53.6667C269.198 39.5769 263.289 100.228 263.167 107.111C262.836 125.709 264.438 145.157 275 161" stroke="#FCA311" stroke-width="10" stroke-linecap="round"/>
<path d="M318 16C317.484 15.3807 317.696 15.4136 316.889 16.6667C314.504 20.3667 312.376 24.2255 310.111 28C294.459 54.0866 276.946 80.8416 270.222 110.944C267.489 123.179 266.335 139.821 278.944 147.167C288.135 152.52 295.259 149.914 304 147" stroke="#FCA311" stroke-width="10" stroke-linecap="round"/>
<path d="M268 65C301.456 66.1277 334.152 70.949 367 77" stroke="#FCA311" stroke-width="10" stroke-linecap="round"/>
<path d="M384 83C373.639 71.6024 357.179 71.5764 342.889 75.4444C327.431 79.6285 316.874 94.005 320.722 110.389C325.145 129.216 343.63 137.909 359.944 127.5C376.383 117.011 390.171 98.5099 396.222 80C396.557 78.9772 400.646 61.9699 393.222 67.8889C388.688 71.5039 388.648 81.4758 388.222 86.1111C387.12 98.1181 386.512 110.985 389.667 122.778C392.558 133.588 398.582 143.196 407.278 150.222C413.286 155.077 417.385 154.795 424 157" stroke="#FCA311" stroke-width="10" stroke-linecap="round"/>
<path d="M482 89C481.607 83.8966 478.894 79.1297 473.667 77.7777C465.732 75.7255 455.635 77.8752 447.889 79.3888C437.378 81.4427 426.592 84.4204 419.389 92.8888C402.069 113.251 418.724 142.508 440.667 151C456.52 157.135 474.535 152.205 488 142.889C499.554 134.895 503.802 125.551 510 114" stroke="#FCA311" stroke-width="10" stroke-linecap="round"/>
<path d="M556 48C551.932 50.0724 552.187 49.6025 548.222 54C538.606 64.6647 530.407 76.9865 523.444 89.5C514.325 105.89 502.222 127.861 502.222 147.333C502.222 160.079 509.013 163.428 521.167 162.278C535.377 160.932 545.447 155.454 557 148" stroke="#FCA311" stroke-width="10" stroke-linecap="round"/>
<path d="M493 77C528.658 77.9905 563.497 81.0547 598 90" stroke="#FCA311" stroke-width="10" stroke-linecap="round"/>
</svg>
