<svg width="649" height="198" viewBox="0 0 649 198" fill="none" xmlns="http://www.w3.org/2000/svg">
<rect width="649" height="198" fill="#14213D"/>
<path d="M46 64C45.7545 62.2818 43.3259 66.3945 42.6667 68C35.0385 86.5769 30.7387 108.491 29.8333 128.5C29.4015 138.043 30.2651 152.808 41.4444 156.444C48.4781 158.733 52.5989 154.063 57 150" stroke="#FCA311" stroke-width="10" stroke-linecap="round"/>
<path d="M20 101C39.7242 99.7275 58.5639 98.3744 77 91" stroke="#FCA311" stroke-width="10" stroke-linecap="round"/>
<path d="M92 147H93" stroke="#FCA311" stroke-width="10" stroke-linecap="round"/>
<path d="M152 87C152 70.1889 134.59 88.0471 130.111 93.6667C120.611 105.587 113.13 121.494 113.889 137.056C114.486 149.306 120.656 166.496 133.778 170.444C146.059 174.14 156.355 166.852 162.722 157C172.389 142.041 182.735 118.247 178 100C174.124 85.0659 157.289 81.5394 144.222 80.3889C138.657 79.8989 132.382 79.2059 127 81" stroke="#FCA311" stroke-width="10" stroke-linecap="round"/>
<path d="M194 56C196.732 65.6867 199.22 73.8587 200 84" stroke="#FCA311" stroke-width="10" stroke-linecap="round"/>
<path d="M218 44C218 14.3315 217 103.331 217 133C217 141.519 217 150.037 217 158.556C217 166.907 217.658 141.846 218.667 133.556C220.539 118.173 224.62 102.279 233.111 89.1111C237.127 82.8837 246.196 68.0858 255.556 69.8889C260.433 70.8285 262.393 76.8378 263.556 80.7222C267.6 94.2323 269.132 108.538 271.111 122.444C272.118 129.518 272.102 140.399 275.556 147.167C277.482 150.943 278.847 145.897 280 145" stroke="#FCA311" stroke-width="10" stroke-linecap="round"/>
<path d="M355.132 75.8635C347.506 74.1036 344.216 69.3021 335.465 70.0857C323.065 71.1962 312.514 78.8254 305.799 89.1968C295.789 104.656 288.6 136.767 303.576 151.53C316.436 164.207 333.778 160.41 341.465 145.086C351.544 124.994 353.948 99.8022 356.687 77.7524C356.807 76.7924 356.908 75.8292 356.965 74.8635C356.993 74.3958 356.578 75.7319 356.521 76.1968C355.383 85.4261 354.755 94.9093 354.576 104.197C354.408 112.935 354.403 139.209 368.576 139.975C377.482 140.456 384.001 127.445 387.021 120.975C391.991 110.323 394.644 98.0797 397.687 86.7524C403.933 63.5053 374.038 179.983 381.799 157.197C388.305 138.094 392.389 117.904 401.465 99.7524C402.757 97.1684 409.218 85.6105 413.91 91.419C417.359 95.6893 418.014 103.366 419.132 108.363C420.568 114.779 421.992 121.087 424.132 127.308C426.159 133.201 428.112 138.743 429.132 144.863" stroke="#FCA311" stroke-width="10" stroke-linecap="round"/>
<path d="M459.897 43C456.169 74.9571 449.177 106.142 448.286 138.5C448.159 143.106 446.903 156.006 450.897 160" stroke="#FCA311" stroke-width="10" stroke-linecap="round"/>
<path d="M506.731 96.8988C506.731 87.5469 498.08 90.9059 492.675 96.0654C479.952 108.21 469.776 154.634 497.953 155.565C522.894 156.39 542.479 106.639 518.175 93.6765C506.968 87.6997 473.671 91.7207 479.731 109.899" stroke="#FCA311" stroke-width="10" stroke-linecap="round"/>
<path d="M544 98C539.358 121.54 537.212 145.873 535.444 169.778C535.184 173.301 537.258 178.127 534.5 180.333C533.443 181.179 534.445 177.603 534.722 176.278C536.304 168.726 538.335 162.107 541.056 154.722C546.866 138.951 554.095 123.036 566.111 110.889C571.639 105.3 584.826 93.9153 592.833 103C600.678 111.901 600.396 128.608 601.333 139.556C601.893 146.095 602.19 152.524 603 159" stroke="#FCA311" stroke-width="10" stroke-linecap="round"/>
</svg>
