<svg width="649" height="198" viewBox="0 0 649 198" fill="none" xmlns="http://www.w3.org/2000/svg">
<rect width="649" height="198" fill="#14213D"/>
<path d="M82 27C82 6.40406 81.9635 68.2099 80.8889 88.7778C79.2949 119.287 75.4563 149.646 74.1667 180.167C74.0533 182.85 73.7175 190.893 74 188.222C75.1528 177.323 77.3404 166.7 80.4444 156.167C87.6973 131.556 98.8093 108.282 119.778 92.5555C124.047 89.354 140.054 77.4328 145.778 84.4444C148.247 87.4696 148.772 91.7575 149.278 95.3889C151.084 108.345 150.8 121.515 151 134.556C151.201 147.676 151.682 157.627 158 169" stroke="#FCA311" stroke-width="10" stroke-linecap="round"/>
<path d="M234 86C233.058 77.9908 214.045 73.3062 208 73.2222C194.91 73.0404 187.381 87.2254 183.889 98C177.805 116.773 176.998 140.928 187.444 158.444C196.323 173.332 216.073 171.575 227.889 161.667C242.273 149.604 250.96 133.968 249 114.889C247.296 98.2989 235.646 66.6416 213.778 69.6667C192.639 72.5908 178.052 99.3133 167 115" stroke="#FCA311" stroke-width="10" stroke-linecap="round"/>
<path d="M268 73C270.868 50.0578 270 119.213 270 142.333C270 143.296 270 146.185 270 145.222C270 130.981 270.93 116.906 274 102.944C277.472 87.155 283.402 73.2697 294.778 61.6667C297.431 58.9606 304.662 50.826 309.444 53C314.945 55.5004 315.239 67.5609 315.778 72.1111C317.756 88.8125 316.916 105.781 317 122.556C317.033 129.134 315.776 147.416 319.667 142.111C323.222 137.262 324.876 131.272 327.556 125.889C334.547 111.844 341.982 97.9132 351.667 85.5C358.499 76.7428 367.433 67.7963 378 63.6667C388.124 59.7104 394.211 68.5609 397.222 77.3333C403.109 94.4842 402.405 114.805 402.889 132.722C403.072 139.479 403 146.241 403 153" stroke="#FCA311" stroke-width="10" stroke-linecap="round"/>
<path d="M433 102C445.242 105.06 457.497 109.716 470.111 105C482.132 100.506 492.899 90.8755 499.833 80.2222C504.038 73.7635 508.259 61.7548 498.833 57.2778C485.765 51.0702 465.596 53.3569 452.667 58.4444C427.036 68.5297 421.181 89.6464 420.722 115.278C420.142 147.662 429.174 180.248 466 186.556C501.61 192.655 531.476 158.962 556 139" stroke="#FCA311" stroke-width="10" stroke-linecap="round"/>
</svg>
