<svg width="649" height="198" viewBox="0 0 649 198" fill="none" xmlns="http://www.w3.org/2000/svg">
<rect width="649" height="198" fill="#14213D"/>
<path d="M73 41C69.5976 45.0829 68.2606 49.7214 66.5556 54.7778C60.6207 72.3778 55.1743 90.2568 50.8889 108.333C45.9814 129.034 43.7997 149.793 43.0556 171C43.0003 172.576 43.115 176.726 42 175.611C38.6099 172.221 42.1832 151.759 42.3889 149.444C44.4915 125.79 48.9529 102.861 56.1667 80.2222C61.0566 64.8763 66.5839 48.7631 75.8333 35.3889C78.9758 30.8451 82.5819 26.8581 87.8889 24.8889C91.7058 23.4725 100.374 21.4244 103.889 24.7778C109.326 29.9651 109.321 43.9512 109.444 50.5556C109.601 58.9512 108.875 70.4547 103.778 77.6667C99.1684 84.1884 87.9338 84.7896 80.8889 85.3333C69.5001 86.2123 57.7487 84.8634 47.1111 80.5555C42.365 78.6336 30.9794 74.0171 37 69" stroke="#FCA311" stroke-width="10" stroke-linecap="round"/>
<path d="M125 83C126.21 79.0686 126 74.8526 126 70.7778C126 68.92 125.762 74.487 125.556 76.3333C124.356 87.08 122.198 97.6438 120 108.222C117.951 118.082 115.623 127.874 114.444 137.889C114.002 141.648 114.143 145.677 113 149.333C109.845 159.429 112.556 128.118 113.778 117.611C115.501 102.792 118.344 86.6092 126.333 73.6667C135.683 58.5205 152.476 47.7872 169.556 43.6667C176.389 42.018 194.908 37.4149 201.111 43.2222C203.091 45.0761 203.379 49.5171 204 52" stroke="#FCA311" stroke-width="10" stroke-linecap="round"/>
<path d="M224 72C205.506 61.1586 187.584 85.9288 184.556 101.667C180.275 123.91 206.466 133.762 224 125.222C235.838 119.457 248.455 109.017 248 94.5556C247.643 83.1978 240.42 71.4968 231 65.4444C228.119 63.5933 211.176 55.122 210 61" stroke="#FCA311" stroke-width="10" stroke-linecap="round"/>
<path d="M278 50C280.095 72.2635 281.92 95.4456 281.556 117.778C281.342 130.848 280.001 144.034 277 156.778C275.192 164.456 272.652 172.982 265.667 177.556C254.407 184.927 237.418 183.574 227.333 175.056C210.491 160.829 221.44 138.101 226 121" stroke="#FCA311" stroke-width="10" stroke-linecap="round"/>
<path d="M286 18C284.157 18.2303 284.675 18.6491 284 20" stroke="#FCA311" stroke-width="10" stroke-linecap="round"/>
<path d="M314 75C308.316 75 314.13 78.2628 316.667 79.4445C332.312 86.734 351.137 87.7344 368.111 86.5556C378.385 85.8421 386.952 82.363 388.556 71.2222C389.763 62.8367 384.951 55.3709 377.556 51.5556C346.612 35.5912 311.812 72.325 308.889 101.556C306.332 127.123 324.516 146.403 347.556 154C362.111 158.799 378.25 159.779 393.444 159.333C398.161 159.195 402.895 158.958 407.556 158.222C438.195 153.388 400.848 158.279 424 152" stroke="#FCA311" stroke-width="10" stroke-linecap="round"/>
<path d="M462 82C464.349 73.5826 467.647 63.8217 458.5 58.2778C440.165 47.1659 412.583 61.087 400.444 75.0556C393.901 82.5853 387.008 92.9443 385.222 103C381.993 121.186 396.492 137.357 410.667 146.444C440.341 165.468 472.419 151.06 499 135" stroke="#FCA311" stroke-width="10" stroke-linecap="round"/>
<path d="M539 49C510.822 81.2688 487.663 117.505 464 153" stroke="#FCA311" stroke-width="10" stroke-linecap="round"/>
<path d="M446 91C464.815 92.3204 483.819 93.0911 502.556 95.2222C512.228 96.3224 519.884 98.9276 528 104" stroke="#FCA311" stroke-width="10" stroke-linecap="round"/>
<path d="M607 93C605.543 86.5878 602.702 77.8435 595.889 75.4444C584.569 71.4586 570.457 69.7746 558.556 68.4444C557.473 68.3235 551.481 66.925 551.167 69.5C550.54 74.6409 555.39 82.6814 557.778 86.5555C563.711 96.1811 571.784 104.022 579.889 111.778C585.002 116.67 592.51 121.754 595.333 128.611C600.902 142.135 590.363 151.624 577.5 154.278C556.857 158.537 544.818 134.455 547 117" stroke="#FCA311" stroke-width="10" stroke-linecap="round"/>
</svg>
